<?xml version="1.0" encoding="utf-8"?>
<!-- Generator: Adobe Illustrator 16.0.0, SVG Export Plug-In . SVG Version: 6.00 Build 0)  -->
<!DOCTYPE svg PUBLIC "-//W3C//DTD SVG 1.1//EN" "http://www.w3.org/Graphics/SVG/1.1/DTD/svg11.dtd">
<svg version="1.1" id="Layer_1" xmlns="http://www.w3.org/2000/svg" xmlns:xlink="http://www.w3.org/1999/xlink" x="0px" y="0px"
	 width="150px" height="150px" viewBox="0 0 150 150" enable-background="new 0 0 150 150" xml:space="preserve">
<g>
	<path d="M0,88.182V61.819h8.972c2.648,0,7.075,0.355,10.474,3.636c3.083,2.964,3.675,6.758,3.675,9.604
		c0,3.478-0.869,6.562-3.438,9.13c-2.095,2.095-5.612,3.992-10.118,3.992H0z M6.837,82.371h1.383c1.66,0,3.992-0.158,5.771-1.896
		c0.87-0.83,2.016-2.49,2.016-5.416c0-2.451-0.751-4.545-2.055-5.77c-1.621-1.502-3.755-1.66-5.455-1.66h-1.66V82.371z"/>
	<path d="M34.308,61.819v26.363h-6.837V61.819H34.308z"/>
	<path d="M52.489,73.241h13.596c0,5.218-1.067,8.933-4.229,11.857c-2.767,2.569-5.928,3.319-9.288,3.319
		c-4.743,0-7.984-1.738-10.118-3.912c-1.977-1.977-3.794-5.178-3.794-9.525c0-4.19,1.66-7.628,3.952-9.881
		c2.174-2.174,5.573-3.874,10.237-3.874c2.451,0,5.099,0.554,7.114,1.779c2.055,1.265,3.755,3.359,4.704,5.415l-6.521,2.688
		c-0.475-1.225-1.226-2.095-1.897-2.648c-1.146-0.949-2.371-1.305-3.676-1.305c-1.62,0-3.28,0.593-4.506,1.818
		c-1.541,1.542-2.292,3.992-2.292,6.047c0,2.411,0.87,4.388,2.095,5.691c1.265,1.344,2.806,2.016,4.822,2.016
		c1.186,0,2.569-0.197,3.794-1.225c0.632-0.514,1.383-1.463,1.62-2.925h-5.612V73.241z"/>
	<path d="M94.188,84.861c-2.688,2.569-6.481,3.913-10.395,3.913s-7.707-1.344-10.395-3.913c-2.806-2.688-4.15-6.363-4.15-9.842
		c0-3.517,1.344-7.232,4.15-9.881c2.688-2.569,6.481-3.913,10.395-3.913s7.707,1.344,10.395,3.913
		c2.806,2.648,4.15,6.364,4.15,9.881C98.339,78.498,96.994,82.174,94.188,84.861z M78.459,69.96
		c-1.424,1.383-2.096,3.32-2.096,5.178c0,2.333,1.107,3.953,2.096,4.901c1.264,1.226,3.043,2.096,5.335,2.096
		c2.332,0,4.071-0.83,5.296-2.057c1.226-1.225,2.135-3.043,2.135-5.059c0-2.055-0.909-3.873-2.135-5.059
		c-1.462-1.383-3.479-2.095-5.296-2.095C81.896,67.866,79.881,68.538,78.459,69.96z"/>
	<path d="M126.441,84.861c-2.688,2.569-6.481,3.913-10.395,3.913c-3.912,0-7.707-1.344-10.395-3.913
		c-2.807-2.688-4.15-6.363-4.15-9.842c0-3.517,1.344-7.232,4.15-9.881c2.688-2.569,6.482-3.913,10.395-3.913
		c3.913,0,7.707,1.344,10.395,3.913c2.807,2.648,4.15,6.364,4.15,9.881C130.592,78.498,129.248,82.174,126.441,84.861z
		 M110.711,69.96c-1.422,1.383-2.094,3.32-2.094,5.178c0,2.333,1.105,3.953,2.094,4.901c1.266,1.226,3.043,2.096,5.336,2.096
		c2.332,0,4.071-0.83,5.297-2.057c1.225-1.225,2.134-3.043,2.134-5.059c0-2.055-0.909-3.873-2.134-5.059
		c-1.463-1.383-3.479-2.095-5.297-2.095C114.15,67.866,112.135,68.538,110.711,69.96z"/>
	<path d="M141.779,61.819v20.552H150v5.811h-15.059V61.819H141.779z"/>
</g>
</svg>
