<?xml version="1.0" encoding="utf-8"?>
<!-- Generator: Adobe Illustrator 24.0.1, SVG Export Plug-In . SVG Version: 6.00 Build 0)  -->
<svg version="1.1" id="a0f4c522-d0e8-404b-95f8-59a6be9d5f61"
	 xmlns="http://www.w3.org/2000/svg" xmlns:xlink="http://www.w3.org/1999/xlink" x="0px" y="0px" viewBox="0 0 985.6 661.2"
	 style="enable-background:new 0 0 985.6 661.2;" xml:space="preserve">
<style type="text/css">
	.st0{fill:#404040;}
	.st1{fill:#3498DB;}
	.st2{fill:#D0CDE1;}
	.st3{opacity:0.1;enable-background:new    ;}
</style>
<title>book_reading</title>
<rect x="27.5" y="640.3" class="st0" width="929" height="2"/>
<rect x="527" y="-5.2" transform="matrix(0.3895 -0.921 0.921 0.3895 -100.6654 766.7458)" class="st0" width="2" height="929"/>
<rect x="27.5" y="277.3" class="st0" width="929" height="2"/>
<path class="st1" d="M830.5,320.8c0.3,85.5-33.5,167.5-93.7,228.1c-3.3,3.3-6.7,6.5-10.1,9.7c-4.1,3.8-8.4,7.5-12.7,11.1
	c-0.8,0.7-1.7,1.4-2.5,2c-17.2,13.9-35.8,26-55.6,36c-1.2,0.6-2.3,1.2-3.5,1.8c-1.9,0.9-3.8,1.8-5.7,2.7
	c-70,32.6-149.5,38-223.2,15.2c-129.1-40.1-223-162.2-223-306.6c0-177,141-320.5,315-320.5S830.5,143.8,830.5,320.8z"/>
<g>
	<path class="st0" d="M573.5,253.6l0.3,0l-1-2.2c-1.1-3.1-2.5-6-4-8.9L539.8,179c-1.9-4.1-6.1-6.8-10.6-6.7l-36.6,0.6
		c-4.9,0.1-9.1,3.2-10.7,7.8l-23,69.2c-0.8,1.9-1.4,3.9-2,5.9l-0.8,2.3l0.2,0c-7.7,32.7,12.7,65.5,45.4,73.1s65.5-12.7,73.1-45.4
		C577.3,275.2,576.8,264,573.5,253.6L573.5,253.6z"/>
	
		<rect x="468.1" y="219.4" transform="matrix(0.1799 -0.9837 0.9837 0.1799 193.6544 672.4109)" class="st1" width="64.1" height="1.3"/>
	
		<rect x="524.6" y="187.6" transform="matrix(0.9772 -0.2124 0.2124 0.9772 -34.6693 116.5863)" class="st1" width="1.3" height="64.1"/>
	<path class="st0" d="M488.6,141.9l47-0.8c0.7,0,1.3,0.6,1.3,1.3c0,0.7-0.6,1.3-1.3,1.3l-47,0.8c-0.7,0-1.3-0.6-1.3-1.3
		C487.2,142.5,487.8,141.9,488.6,141.9C488.6,141.9,488.6,141.9,488.6,141.9L488.6,141.9z"/>
	<path class="st0" d="M489.1,151.8l47-0.8c0.7,0,1.3,0.6,1.3,1.3c0,0.7-0.6,1.3-1.3,1.3c0,0,0,0,0,0l-47,0.8c-0.7,0-1.3-0.6-1.3-1.3
		C487.7,152.4,488.3,151.8,489.1,151.8z"/>
	<path class="st0" d="M489.5,161.7l47-0.8c0.7,0,1.3,0.6,1.3,1.3c0,0.7-0.6,1.3-1.3,1.3l-47,0.8c-0.7,0-1.3-0.6-1.3-1.3
		C488.2,162.3,488.8,161.7,489.5,161.7L489.5,161.7z"/>
	<path class="st0" d="M511.9,132c-9.3,0.2-16.8,5.5-16.7,11.9l33.7-0.6C528.8,136.9,521.2,131.9,511.9,132z"/>
	<path class="st1" d="M517.1,260.8c1.8,0.1,3.6,0.9,4.9,2.1c0.3,0.3,0.7,0.6,1,0.9c1.1,1.1,2.4,2,3.9,2.5c3.2,0.9,6.4-1.7,9.1-4.3
		l0.9,0.9c-3,2.9-6.5,5.7-10.4,4.6c-1.7-0.6-3.2-1.6-4.4-2.8c-0.3-0.3-0.7-0.6-1-0.9c-1.1-0.9-3.2-2.3-5.1-1.6
		c-0.8,0.4-1.5,0.9-2.1,1.6c-0.4,0.5-0.9,0.9-1.4,1.3c-2.1,1.5-5,1.6-7.2,0.2c-0.4-0.3-0.8-0.5-1.1-0.8c-0.6-0.6-1.3-1-2.1-1.2
		c-1.1-0.2-2.1,0.6-3.2,1.5c-1,1-2.3,1.6-3.7,1.9c0,0-0.1,0-0.1,0c-2.6,0-4.3-2.6-5.3-4.6l1.2-0.6c1.4,2.7,2.8,4,4.2,3.9
		c1.1-0.2,2.2-0.8,3-1.6c1.3-1,2.5-2,4.2-1.8c1,0.2,2,0.7,2.8,1.5c0.3,0.3,0.7,0.5,1,0.8c1.8,1.1,4,1,5.7-0.2
		c0.5-0.4,0.9-0.7,1.3-1.2c0.7-0.8,1.6-1.4,2.5-1.9C516,260.9,516.5,260.8,517.1,260.8z"/>
	<rect x="512" class="st0" width="1.4" height="132"/>
</g>
<path class="st1" d="M940.4,228.7c-8.4,31-37.1,50.2-37.1,50.2s-15.1-31-6.7-62s37.1-50.2,37.1-50.2S948.8,197.7,940.4,228.7z"/>
<path class="st1" d="M864.2,228.7c8.4,31,37.1,50.2,37.1,50.2s15.1-31,6.7-62s-37.1-50.2-37.1-50.2S855.8,197.7,864.2,228.7z"/>
<path class="st0" d="M876.5,222c23,22.4,25.8,56.8,25.8,56.8s-34.5-1.9-57.5-24.3S819,197.7,819,197.7S853.5,199.6,876.5,222z"/>
<path class="st0" d="M928.1,222c-23,22.4-25.8,56.8-25.8,56.8s34.5-1.9,57.5-24.3s25.8-56.8,25.8-56.8S951.1,199.6,928.1,222z"/>
<path class="st1" d="M121.4,590.7c-8.4,31-37.1,50.2-37.1,50.2s-15.1-31-6.7-62s37.1-50.2,37.1-50.2S129.8,559.7,121.4,590.7z"/>
<path class="st1" d="M45.2,590.7c8.4,31,37.1,50.2,37.1,50.2s15.1-31,6.7-62s-37.1-50.2-37.1-50.2S36.8,559.7,45.2,590.7z"/>
<path class="st0" d="M57.5,584c23,22.4,25.8,56.8,25.8,56.8s-34.5-1.9-57.5-24.3S0,559.7,0,559.7S34.5,561.6,57.5,584z"/>
<path class="st0" d="M109.1,584c-23,22.4-25.8,56.8-25.8,56.8s34.5-1.9,57.5-24.3s25.8-56.8,25.8-56.8S132.1,561.6,109.1,584z"/>
<path class="st1" d="M651.1,285.2c0,0-3,13.7,15.7,19.2L651.1,285.2z"/>
<path class="st1" d="M729.7,315.2c0,0-3,13.7,15.7,19.2L729.7,315.2z"/>
<path class="st2" d="M475,413.4l-50.7,12.3l-0.2,0l-5.5,5l-1.6,1.4l-3.4-0.6l-6-1.1l4.2-14.2l0.8-27l-2.9-16.5l16-11
	C425.7,361.7,456.9,359.9,475,413.4z"/>
<path class="st3" d="M424.3,425.7c-0.7,1.5,0.8,0.5,0,2l-7.3,2.4l-3.3,1.5l-6-1.1l4.2-14.2l0.8-27l-2.9-16.5l16-11
	C425.7,361.7,442.9,386,424.3,425.7z"/>
<path class="st2" d="M534.7,374.6c0,0-66.6,30.9-93.6,35.6s-24.6,31.7-24.6,31.7l151.2-23.6C567.7,418.4,562.5,394,534.7,374.6z"/>
<path class="st1" d="M406.3,369.3c0,0,11.5,28-1.3,62.9l14.9,6.8l5.8-6.8l0.1-0.7l-15.9-1.4c0,0,13.1-35.1,2.4-59.5
	C412.3,370.7,410,365.4,406.3,369.3z"/>
<path class="st0" d="M626.2,577.2c-59-13.1-113.9,14-113.9,14l-0.1-0.1l-21.9-19.5l-85.4-139.4l20.8,0.1
	c57.9-34.6,139.4-29.9,139.4-29.9C600.2,442.2,626.2,577.2,626.2,577.2z"/>
<path class="st3" d="M512.2,591.1l-21.9-19.5l-85.4-139.4l20.8,0.1C425.7,432.2,508.7,541.9,512.2,591.1z"/>
<ellipse transform="matrix(0.956 -0.2932 0.2932 0.956 -112.7363 171.4496)" class="st2" cx="515.5" cy="461.7" rx="33.8" ry="21.5"/>
<circle class="st0" cx="27.8" cy="277.2" r="19"/>
<circle class="st0" cx="955.8" cy="642.2" r="19"/>
<circle class="st1" cx="110.8" cy="279.2" r="15"/>
<circle class="st1" cx="955.8" cy="279.2" r="15"/>
<circle class="st1" cx="27.8" cy="640.2" r="15"/>
</svg>
