<svg id="b6117b06-2b45-45bc-b789-4a82ab6612dd" xmlns="http://www.w3.org/2000/svg" viewBox="0 0 1139.17 654.54"><defs><style>.cls-1{fill:#f2f2f2;}.cls-2{fill:#3498db;}.cls-3,.cls-4{fill:#404040;}.cls-4{opacity:0.1;isolation:isolate;}</style></defs><title>digool-graph2</title><circle class="cls-1" cx="246.83" cy="521.76" r="59.24"/><circle class="cls-2" cx="256.46" cy="513.09" r="59.24"/><rect class="cls-3" x="304.17" y="447.54" width="733" height="2"/><path class="cls-3" d="M683.79,18.65H423.62V13.29h-118v5.36H44.41a17.6,17.6,0,0,0-17.6,17.6h0V392.5a17.6,17.6,0,0,0,17.6,17.6H683.79a17.6,17.6,0,0,0,17.6-17.6V36.25a17.6,17.6,0,0,0-17.6-17.6Z"/><rect class="cls-2" x="50.41" y="49.75" width="627.39" height="353.91"/><circle class="cls-2" cx="363.57" cy="33.67" r="6.43"/><polygon class="cls-4" points="498.37 403.67 50.41 403.67 50.41 49.75 498.37 403.67"/><circle class="cls-1" cx="148.57" cy="316.88" r="60.31"/><rect class="cls-3" x="509.95" y="240.62" width="58.61" height="12.25"/><rect class="cls-3" x="439.1" y="145.28" width="200.31" height="5.25"/><rect class="cls-3" x="439.1" y="161.9" width="200.31" height="5.25"/><rect class="cls-3" x="439.1" y="178.52" width="200.31" height="5.25"/><rect class="cls-3" x="439.1" y="195.14" width="200.31" height="5.25"/><rect class="cls-3" x="439.1" y="211.76" width="200.31" height="5.25"/><rect class="cls-1" x="614.92" y="56.93" width="24.49" height="24.49"/><path class="cls-3" d="M650.78,92.8H621V63.06h29.74Zm-28.45-1.3h27.16V64.35H622.33Z"/><path class="cls-3" d="M719,397.23H657.78v-4.41a.87.87,0,0,0-.88-.87h-21a.87.87,0,0,0-.87.87h0v4.41H621.91v-4.41A.87.87,0,0,0,621,392h-21a.87.87,0,0,0-.88.87h0v4.41H586.05v-4.41a.87.87,0,0,0-.87-.87h-21a.87.87,0,0,0-.87.87h0v4.41H550.19v-4.41a.87.87,0,0,0-.88-.87h-21a.87.87,0,0,0-.87.87h0v4.41H514.33v-4.41a.88.88,0,0,0-.88-.87h-21a.88.88,0,0,0-.88.87h0v4.41H478.46v-4.41a.87.87,0,0,0-.87-.87h-21a.87.87,0,0,0-.88.87h0v4.41H442.6v-4.41a.87.87,0,0,0-.87-.87H277.28a.87.87,0,0,0-.87.87h0v4.41H263.29v-4.41a.88.88,0,0,0-.88-.87h-21a.88.88,0,0,0-.88.87h0v4.41H227.42v-4.41a.87.87,0,0,0-.87-.87h-21a.87.87,0,0,0-.88.87h0v4.41H191.56v-4.41a.87.87,0,0,0-.87-.87h-21a.87.87,0,0,0-.87.87h0v4.41H155.7v-4.41a.87.87,0,0,0-.88-.87h-21a.87.87,0,0,0-.87.87h0v4.41H119.83v-4.41A.87.87,0,0,0,119,392H98a.87.87,0,0,0-.88.87h0v4.41H84v-4.41a.87.87,0,0,0-.87-.87h-21a.87.87,0,0,0-.87.87h0v4.41H21a21,21,0,0,0-21,21v9.5a21,21,0,0,0,21,21H719a21,21,0,0,0,21-21v-9.5A21,21,0,0,0,719,397.23Z"/><path class="cls-3" d="M163.17,354.54a76,76,0,1,1,76-76A76,76,0,0,1,163.17,354.54Zm0-150a74,74,0,1,0,74,74A74,74,0,0,0,163.17,204.54Z"/><rect class="cls-3" x="586.17" y="32.54" width="255" height="2"/><rect class="cls-3" x="406.17" y="560.54" width="733" height="2"/><rect class="cls-3" x="192.67" y="652.54" width="255" height="2"/><rect class="cls-2" x="471" y="550" width="28" height="28"/><path class="cls-3" d="M516,562H482V528h34Zm-32.52-1.48h31v-31h-31Z"/><rect class="cls-2" x="796" y="22" width="28" height="28"/><path class="cls-3" d="M841,34H807V0h34Zm-32.52-1.48h31v-31h-31Z"/><rect class="cls-2" x="1078" y="550" width="28" height="28"/><path class="cls-3" d="M1123,562h-34V528h34Zm-32.52-1.48h31v-31h-31Z"/><path class="cls-3" d="M1057.17,232h-2.38V166.8a37.71,37.71,0,0,0-37.71-37.72H879a37.72,37.72,0,0,0-37.72,37.72h0V524.28A37.71,37.71,0,0,0,879,562h138.05a37.71,37.71,0,0,0,37.71-37.71h0V278.34h2.38Z"/><path class="cls-2" d="M1046.76,169V526a28.16,28.16,0,0,1-28.16,28.17H879.88A28.17,28.17,0,0,1,851.72,526V169a28.16,28.16,0,0,1,28.16-28.16h16.83a13.38,13.38,0,0,0,12.39,18.43h79.09a13.38,13.38,0,0,0,12.39-18.43h18A28.16,28.16,0,0,1,1046.76,169Z"/><rect class="cls-3" x="928.58" y="376.22" width="41.32" height="12.25"/><rect class="cls-3" x="878.62" y="280.87" width="141.24" height="5.25"/><rect class="cls-3" x="878.62" y="297.49" width="141.24" height="5.25"/><rect class="cls-3" x="878.62" y="314.11" width="141.24" height="5.25"/><rect class="cls-3" x="878.62" y="330.73" width="141.24" height="5.25"/><rect class="cls-3" x="878.62" y="347.35" width="141.24" height="5.25"/><rect class="cls-1" x="929.68" y="211.18" width="24.49" height="24.49"/><path class="cls-3" d="M939.06,217.3V247H968.8V217.3Zm28.45,28.45H940.35V218.59h27.16Z"/><path class="cls-4" d="M1046.76,487.85V526a28.16,28.16,0,0,1-28.16,28.17H879.88A28.17,28.17,0,0,1,851.72,526V333.76l116.87,92.33,2,1.58,21.74,17.17,2,1.61Z"/><circle class="cls-1" cx="937.24" cy="498.71" r="43.87"/><path class="cls-3" d="M320.17,654.54a87,87,0,1,1,87-87A87,87,0,0,1,320.17,654.54Zm0-172a85,85,0,1,0,85,85A85,85,0,0,0,320.17,482.54Z"/><path class="cls-3" d="M950.17,532.54a55,55,0,1,1,55-55A55,55,0,0,1,950.17,532.54Zm0-108a53,53,0,1,0,53,53h0A53.07,53.07,0,0,0,950.17,424.54Z"/></svg>