<?xml version="1.0" encoding="utf-8"?>
<!-- Generator: Adobe Illustrator 24.0.1, SVG Export Plug-In . SVG Version: 6.00 Build 0)  -->
<svg version="1.1" id="ac06be7c-8b53-49c8-a8f9-095f247acb25"
	 xmlns="http://www.w3.org/2000/svg" xmlns:xlink="http://www.w3.org/1999/xlink" x="0px" y="0px" viewBox="0 0 1046 572.2"
	 style="enable-background:new 0 0 1046 572.2;" xml:space="preserve">
<style type="text/css">
	.st0{fill:#F2F2F2;}
	.st1{fill:#3498DB;}
	.st2{fill:#404040;}
	.st3{fill:#FFB8B8;}
</style>
<title>fitting_piece</title>
<circle class="st0" cx="923" cy="333.2" r="123"/>
<circle class="st1" cx="903" cy="315.2" r="123"/>
<rect x="715.7" y="569.9" class="st2" width="158.4" height="1.9"/>
<path class="st2" d="M642,419.2c0-84.4,68.6-153,153-153s153,68.6,153,153s-68.6,153-153,153S642,503.6,642,419.2z M644,419.2
	c0,83.3,67.7,151,151,151s151-67.7,151-151s-67.7-151-151-151S644,335.9,644,419.2z"/>
<path class="st2" d="M674,145L1,45L0.5,570.5h874L674,145z M180,340c-0.3,0-0.7,0-1-0.1V380H71V272h42c0-10.5,8.5-19,19-19
	s19,8.5,19,19h28v30.1c0.3,0,0.7-0.1,1-0.1c10.5,0,19,8.5,19,19S190.5,340,180,340z M593.5,310.5c0,22.4-4.8,44.6-14.2,65
	c-1,2.2-2.1,4.4-3.2,6.5c-4.5,8.7-9.8,16.9-15.8,24.6c-3.1,3.9-6.3,7.7-9.8,11.3c-2.5,2.7-5.1,5.2-7.8,7.7
	c-23.7,21.7-53.5,35.5-85.3,39.6c-6.6,0.8-13.3,1.3-19.9,1.3c-86.2,0.1-156.1-69.7-156.2-155.8c-0.1-81.2,62.1-148.9,143-155.6
	c0.4,0,0.7-0.1,1.1-0.1c2.7-0.2,5.5-0.4,8.2-0.4c1.3,0,2.6,0,3.8,0c8.7,0,17.4,0.7,26,2.2c1.2,0.2,2.4,0.4,3.5,0.6
	c0.7,0.1,1.5,0.3,2.2,0.4C541.6,172.8,593.5,236.6,593.5,310.5L593.5,310.5z"/>
<rect x="651.3" y="58" class="st2" width="179.1" height="2"/>
<rect x="651.3" y="72.1" class="st2" width="179.1" height="2"/>
<rect x="651.3" y="86.2" class="st2" width="179.1" height="2"/>
<polygon class="st3" points="545.4,412.2 535.4,466.2 568.4,461.2 569.9,404.7 "/>
<circle class="st1" cx="616.2" cy="183.1" r="9.1"/>
<circle class="st1" cx="669.4" cy="352.7" r="4.1"/>
<circle class="st1" cx="612.4" cy="541.7" r="4.1"/>
<circle class="st1" cx="70.4" cy="529.7" r="4.1"/>
<circle class="st1" cx="261.4" cy="183.7" r="4.1"/>
<polygon class="st1" points="671.6,256.4 669.6,256.4 669.6,254.4 668.6,254.4 668.6,256.4 666.6,256.4 666.6,257.5 668.6,257.5 
	668.6,259.5 669.6,259.5 669.6,257.5 671.6,257.5 "/>
<polygon class="st1" points="740.6,446.4 738.6,446.4 738.6,444.4 737.6,444.4 737.6,446.4 735.6,446.4 735.6,447.5 737.6,447.5 
	737.6,449.5 738.6,449.5 738.6,447.5 740.6,447.5 "/>
<polygon class="st1" points="510.6,530.4 508.6,530.4 508.6,528.4 507.6,528.4 507.6,530.4 505.6,530.4 505.6,531.5 507.6,531.5 
	507.6,533.5 508.6,533.5 508.6,531.5 510.6,531.5 "/>
<polygon class="st1" points="378.6,138.4 376.6,138.4 376.6,136.4 375.6,136.4 375.6,138.4 373.6,138.4 373.6,139.5 375.6,139.5 
	375.6,141.5 376.6,141.5 376.6,139.5 378.6,139.5 "/>
<polygon class="st1" points="20.6,217.4 18.6,217.4 18.6,215.4 17.6,215.4 17.6,217.4 15.6,217.4 15.6,218.5 17.6,218.5 17.6,220.5 
	18.6,220.5 18.6,218.5 20.6,218.5 "/>
<polygon class="st1" points="59.6,146.4 57.6,146.4 57.6,144.4 56.6,144.4 56.6,146.4 54.6,146.4 54.6,147.5 56.6,147.5 56.6,149.5 
	57.6,149.5 57.6,147.5 59.6,147.5 "/>
<polygon class="st1" points="342.6,533.4 340.6,533.4 340.6,531.4 339.6,531.4 339.6,533.4 337.6,533.4 337.6,534.5 339.6,534.5 
	339.6,536.5 340.6,536.5 340.6,534.5 342.6,534.5 "/>
<polygon class="st1" points="190.6,115.4 188.6,115.4 188.6,113.4 187.6,113.4 187.6,115.4 185.6,115.4 185.6,116.5 187.6,116.5 
	187.6,118.5 188.6,118.5 188.6,116.5 190.6,116.5 "/>
<polygon class="st1" points="23.6,348.4 21.6,348.4 21.6,346.4 20.6,346.4 20.6,348.4 18.6,348.4 18.6,349.5 20.6,349.5 20.6,351.5 
	21.6,351.5 21.6,349.5 23.6,349.5 "/>
<polygon class="st1" points="176.6,235.4 174.6,235.4 174.6,233.4 173.6,233.4 173.6,235.4 171.6,235.4 171.6,236.5 173.6,236.5 
	173.6,238.5 174.6,238.5 174.6,236.5 176.6,236.5 "/>
<polygon class="st1" points="179.6,525.4 177.6,525.4 177.6,523.4 176.6,523.4 176.6,525.4 174.6,525.4 174.6,526.5 176.6,526.5 
	176.6,528.5 177.6,528.5 177.6,526.5 179.6,526.5 "/>
<polygon class="st1" points="270.6,460.4 268.6,460.4 268.6,458.4 267.6,458.4 267.6,460.4 265.6,460.4 265.6,461.5 267.6,461.5 
	267.6,463.5 268.6,463.5 268.6,461.5 270.6,461.5 "/>
<polygon class="st1" points="771.6,538.4 769.6,538.4 769.6,536.4 768.6,536.4 768.6,538.4 766.6,538.4 766.6,539.5 768.6,539.5 
	768.6,541.5 769.6,541.5 769.6,539.5 771.6,539.5 "/>
<circle class="st1" cx="27" cy="21" r="10"/>
<circle class="st1" cx="57" cy="21" r="10"/>
<circle class="st1" cx="87" cy="21" r="10"/>
<rect x="480.3" y="498.2" class="st1" width="179.1" height="2"/>
<rect x="472" y="360" class="st1" width="108" height="108"/>
<path class="st2" d="M493,444v-84h-2v86h89v-2H493z"/>
<circle class="st2" cx="532" cy="403" r="25"/>
<circle class="st1" cx="526" cy="357" r="19"/>
<circle class="st1" cx="580" cy="410" r="19"/>
<path class="st2" d="M876,572H0V0h876V572z M2,570h872V2H2V570z"/>
</svg>
